<svg width="9" height="13" viewBox="0 0 9 13" fill="none" xmlns="http://www.w3.org/2000/svg">
<path id="Vector" d="M8.1452 12.6598C8.0328 12.7676 7.89929 12.8532 7.75231 12.9116C7.60533 12.97 7.44776 13 7.28864 13C7.12952 13 6.97195 12.97 6.82497 12.9116C6.67799 12.8532 6.54448 12.7676 6.43208 12.6598L0.855315 7.31993C0.742682 7.2123 0.653323 7.08446 0.592353 6.94372C0.531384 6.80299 0.500001 6.65212 0.500001 6.49975C0.500001 6.34739 0.531384 6.19652 0.592353 6.05578C0.653323 5.91505 0.742682 5.78721 0.855315 5.67958L6.43208 0.339729C6.54456 0.232022 6.6781 0.146583 6.82507 0.0882927C6.97204 0.0300022 7.12956 1.53325e-06 7.28864 1.54716e-06C7.44772 1.56106e-06 7.60524 0.0300023 7.75221 0.0882928C7.89918 0.146583 8.03272 0.232022 8.1452 0.339729C8.25769 0.447435 8.34692 0.575301 8.40779 0.716026C8.46867 0.856752 8.5 1.00758 8.5 1.1599C8.5 1.31222 8.46867 1.46305 8.40779 1.60378C8.34692 1.7445 8.25769 1.87237 8.1452 1.98007L3.43107 6.50557L8.1452 11.0194C8.61904 11.4731 8.60689 12.2177 8.1452 12.6598Z" fill="#C9C9C9"/>
</svg>
