<svg width="30" height="24" viewBox="0 0 30 24" fill="none" xmlns="http://www.w3.org/2000/svg">
<path d="M16.3636 20C16.3636 19.2667 15.75 18.6667 15 18.6667H2.72727V10.6667H27.2727V2.66667C27.2727 1.2 26.0455 0 24.5455 0H2.72727C1.21364 0 0.0136364 1.18667 0.0136364 2.66667L0 18.6667C0 20.1467 1.21364 21.3333 2.72727 21.3333H15C15.75 21.3333 16.3636 20.7333 16.3636 20ZM24.5455 5.33333H2.72727V2.66667H24.5455V5.33333ZM24.5455 24C23.7955 24 23.1818 23.4 23.1818 22.6667V20H20.4545C19.7045 20 19.0909 19.4 19.0909 18.6667C19.0909 17.9333 19.7045 17.3333 20.4545 17.3333H23.1818V14.6667C23.1818 13.9333 23.7955 13.3333 24.5455 13.3333C25.2955 13.3333 25.9091 13.9333 25.9091 14.6667V17.3333H28.6364C29.3864 17.3333 30 17.9333 30 18.6667C30 19.4 29.3864 20 28.6364 20H25.9091V22.6667C25.9091 23.4 25.2955 24 24.5455 24Z" fill="url(#paint0_linear_103_1019)"/>
<defs>
<linearGradient id="paint0_linear_103_1019" x1="25.7927" y1="-8.8655e-06" x2="-0.0538481" y2="2.58669" gradientUnits="userSpaceOnUse">
<stop stop-color="#FFC701"/>
<stop offset="1" stop-color="#FF8E09"/>
</linearGradient>
</defs>
</svg>
