<svg width="9" height="13" viewBox="0 0 9 13" fill="none" xmlns="http://www.w3.org/2000/svg">
<path id="Vector" d="M0.854799 12.6598C0.967201 12.7676 1.10071 12.8532 1.24769 12.9116C1.39467 12.9699 1.55224 13 1.71136 13C1.87048 13 2.02805 12.9699 2.17503 12.9116C2.32201 12.8532 2.45552 12.7676 2.56792 12.6598L8.14469 7.31993C8.25732 7.2123 8.34668 7.08446 8.40765 6.94372C8.46862 6.80299 8.5 6.65212 8.5 6.49975C8.5 6.34739 8.46862 6.19652 8.40765 6.05578C8.34668 5.91505 8.25732 5.78721 8.14469 5.67958L2.56792 0.339728C2.45544 0.232021 2.3219 0.146582 2.17493 0.0882916C2.02796 0.0300011 1.87044 3.741e-07 1.71136 3.60193e-07C1.55228 3.46286e-07 1.39476 0.030001 1.24779 0.0882915C1.10082 0.146582 0.967285 0.232021 0.8548 0.339728C0.742314 0.447434 0.653087 0.5753 0.59221 0.716025C0.531334 0.856751 0.5 1.00758 0.5 1.1599C0.5 1.31222 0.531334 1.46305 0.59221 1.60377C0.653087 1.7445 0.742314 1.87237 0.8548 1.98007L5.56893 6.50557L0.854799 11.0194C0.380956 11.4731 0.393106 12.2177 0.854799 12.6598Z" fill="#373737"/>
</svg>
