<svg width="13" height="9" viewBox="0 0 13 9" fill="none" xmlns="http://www.w3.org/2000/svg">
<path id="Vector" d="M0.814049 0.854801C0.714497 0.967203 0.635516 1.10072 0.581627 1.2477C0.527738 1.39468 0.5 1.55224 0.5 1.71136C0.5 1.87049 0.527738 2.02805 0.581627 2.17503C0.635516 2.32201 0.714497 2.45552 0.814049 2.56792L5.74314 8.14469C5.84249 8.25732 5.9605 8.34668 6.09041 8.40765C6.22032 8.46862 6.35958 8.5 6.50023 8.5C6.64087 8.5 6.78013 8.46862 6.91005 8.40765C7.03996 8.34668 7.15796 8.25732 7.25731 8.14469L12.1864 2.56792C12.2858 2.45544 12.3647 2.3219 12.4185 2.17493C12.4723 2.02796 12.5 1.87044 12.5 1.71136C12.5 1.55228 12.4723 1.39476 12.4185 1.24779C12.3647 1.10082 12.2858 0.967285 12.1864 0.8548C12.087 0.742315 11.969 0.653087 11.8391 0.59221C11.7092 0.531333 11.5699 0.5 11.4293 0.5C11.2887 0.5 11.1495 0.531333 11.0196 0.59221C10.8897 0.653087 10.7717 0.742315 10.6722 0.8548L6.49486 5.56893L2.32822 0.854801C1.9094 0.380958 1.22212 0.393107 0.814049 0.854801Z" fill="#373737"/>
</svg>
