<svg width="34" height="34" viewBox="0 0 34 34" fill="none" xmlns="http://www.w3.org/2000/svg">
<circle cx="17" cy="17" r="16" fill="#BFBFBF"/>
<path d="M21.9484 13.463L18.4128 16.9985L21.9484 20.5341C22.1359 20.7216 22.2413 20.976 22.2413 21.2412C22.2413 21.5064 22.1359 21.7607 21.9484 21.9483C21.7608 22.1358 21.5065 22.2412 21.2413 22.2412C20.976 22.2412 20.7217 22.1358 20.5341 21.9483L16.9986 18.4127L13.4631 21.9483C13.2755 22.1358 13.0212 22.2412 12.756 22.2412C12.4908 22.2412 12.2364 22.1358 12.0489 21.9483C11.8613 21.7607 11.756 21.5064 11.756 21.2412C11.756 20.976 11.8613 20.7216 12.0489 20.5341L15.5844 16.9985L12.0489 13.463C11.8613 13.2755 11.756 13.0211 11.756 12.7559C11.756 12.4907 11.8613 12.2363 12.0489 12.0488C12.2364 11.8613 12.4908 11.7559 12.756 11.7559C13.0212 11.7559 13.2755 11.8613 13.4631 12.0488L16.9986 15.5843L20.5341 12.0488C20.7217 11.8613 20.976 11.7559 21.2413 11.7559C21.5065 11.7559 21.7608 11.8613 21.9484 12.0488C22.1359 12.2363 22.2413 12.4907 22.2413 12.7559C22.2413 13.0211 22.1359 13.2755 21.9484 13.463Z" fill="#373737"/>
</svg>
