<svg width="29" height="24" viewBox="0 0 29 24" fill="none" xmlns="http://www.w3.org/2000/svg">
<path d="M26.1 16.2162V14.2703C26.1 12.4541 24.2545 11.027 22.4091 11.027C20.5636 11.027 18.7182 12.4541 18.7182 14.2703V16.2162C17.9273 16.2162 17.1364 16.9946 17.1364 17.773V22.3135C17.1364 23.2216 17.9273 24 18.7182 24H25.9682C26.8909 24 27.6818 23.2216 27.6818 22.4432V17.9027C27.6818 16.9946 26.8909 16.2162 26.1 16.2162ZM24.3864 16.2162H20.4318V14.2703C20.4318 13.2324 21.3545 12.5838 22.4091 12.5838C23.4636 12.5838 24.3864 13.2324 24.3864 14.2703V16.2162ZM18.4545 9.72973C17.2682 10.6378 16.4773 11.8054 16.2136 13.2324C15.6864 13.4919 15.1591 13.6216 14.5 13.6216C12.2591 13.6216 10.5455 11.9351 10.5455 9.72973C10.5455 7.52432 12.2591 5.83784 14.5 5.83784C16.7409 5.83784 18.4545 7.52432 18.4545 9.72973ZM14.5 19.4595C7.90909 19.4595 2.24091 15.4378 0 9.72973C2.24091 4.02162 7.90909 0 14.5 0C21.0909 0 26.7591 4.02162 29 9.72973C28.7364 10.3784 28.3409 11.027 28.0773 11.6757C27.0227 9.72973 24.7818 8.43243 22.4091 8.43243C21.8818 8.43243 21.4864 8.56216 20.9591 8.56216C20.4318 5.57838 17.7955 3.24324 14.5 3.24324C10.8091 3.24324 7.90909 6.0973 7.90909 9.72973C7.90909 13.3622 10.8091 16.2162 14.5 16.2162H14.8955C14.6318 16.7351 14.5 17.2541 14.5 17.773V19.4595Z" fill="#BFBFBF"/>
</svg>
