<svg width="19" height="19" viewBox="0 0 19 19" fill="none" xmlns="http://www.w3.org/2000/svg">
<circle cx="9.5" cy="9.5" r="9.5" fill="#BFBFBF"/>
<path d="M14.2063 6.0062C14.3869 6.17696 14.4924 6.41247 14.4994 6.66094C14.5064 6.9094 14.4145 7.1505 14.2438 7.3312L8.9313 12.9562C8.8452 13.0472 8.74173 13.12 8.62702 13.1704C8.5123 13.2207 8.38865 13.2475 8.26339 13.2493C8.13812 13.251 8.01377 13.2277 7.8977 13.1805C7.78162 13.1334 7.67616 13.0635 7.58755 12.9749L4.77505 10.1625C4.60945 9.98473 4.5193 9.74967 4.52358 9.5068C4.52787 9.26392 4.62626 9.03219 4.79803 8.86042C4.96979 8.68866 5.20152 8.59027 5.4444 8.58598C5.68728 8.5817 5.92233 8.67185 6.10005 8.83745L8.2313 10.9675L12.8813 6.0437C13.0521 5.86307 13.2876 5.75765 13.536 5.75062C13.7845 5.74359 14.0256 5.83552 14.2063 6.0062Z" fill="#373737"/>
</svg>
