<svg width="19" height="24" viewBox="0 0 19 24" fill="none" xmlns="http://www.w3.org/2000/svg">
<path d="M19 12C19 10.6764 17.9348 9.6 16.625 9.6H15.4375V6C15.4375 2.6916 12.7739 0 9.5 0C6.22606 0 3.5625 2.6916 3.5625 6V9.6H2.375C1.06519 9.6 0 10.6764 0 12V21.6C0 22.9236 1.06519 24 2.375 24H16.625C17.9348 24 19 22.9236 19 21.6V12ZM5.9375 6C5.9375 4.0152 7.53587 2.4 9.5 2.4C11.4641 2.4 13.0625 4.0152 13.0625 6V9.6H5.9375V6Z" fill="url(#paint0_linear_103_1020)"/>
<defs>
<linearGradient id="paint0_linear_103_1020" x1="16.3354" y1="-8.8655e-06" x2="-0.131901" y2="1.04374" gradientUnits="userSpaceOnUse">
<stop stop-color="#FFC701"/>
<stop offset="1" stop-color="#FF8E09"/>
</linearGradient>
</defs>
</svg>
