<svg width="32" height="32" viewBox="0 0 32 32" fill="none" xmlns="http://www.w3.org/2000/svg">
<g id="Group 41040">
<circle id="Ellipse 1" cx="16" cy="16" r="16" fill="#BFBFBF"/>
<path id="Vector" fill-rule="evenodd" clip-rule="evenodd" d="M17.6854 7.1444C17.3349 7 16.8896 7 16.0001 7C15.1105 7 14.6652 7 14.3147 7.1444C13.8481 7.3365 13.4767 7.70658 13.2821 8.17325C13.1931 8.3851 13.159 8.63305 13.1448 8.9931C13.1384 9.25397 13.0659 9.50892 12.9339 9.73383C12.802 9.95875 12.615 10.1462 12.3907 10.2785C12.1621 10.4058 11.9052 10.4733 11.6437 10.4747C11.3822 10.476 11.1247 10.4111 10.8948 10.2861C10.5746 10.117 10.3425 10.0238 10.1133 9.99345C9.6117 9.92741 9.10442 10.0626 8.70173 10.3696C8.40047 10.5995 8.17785 10.9834 7.73354 11.75C7.28829 12.5166 7.06661 12.8995 7.0164 13.2747C6.95009 13.7744 7.08651 14.2798 7.39534 14.6798C7.53555 14.8622 7.73354 15.0152 8.03953 15.207C8.49142 15.4892 8.7813 15.9699 8.7813 16.5C8.7813 17.0301 8.49142 17.5108 8.04048 17.792C7.73354 17.9848 7.53555 18.1378 7.39439 18.3202C7.24195 18.5177 7.13006 18.7436 7.06518 18.9848C7.0003 19.226 6.98372 19.4776 7.0164 19.7253C7.06661 20.0996 7.28829 20.4833 7.73354 21.25C8.17879 22.0167 8.40047 22.3995 8.70173 22.6303C9.1034 22.9372 9.61117 23.0721 10.1133 23.0065C10.3425 22.9762 10.5746 22.883 10.8948 22.714C11.1248 22.5887 11.3825 22.5237 11.6442 22.5251C11.9059 22.5264 12.163 22.594 12.3916 22.7215C12.852 22.9875 13.1249 23.4768 13.1448 24.0069C13.159 24.3679 13.1931 24.6149 13.2821 24.8267C13.4754 25.2922 13.8467 25.6628 14.3147 25.8556C14.6652 26 15.1105 26 16.0001 26C16.8896 26 17.3349 26 17.6854 25.8556C18.152 25.6635 18.5234 25.2934 18.718 24.8267C18.807 24.6149 18.8411 24.3679 18.8553 24.0069C18.8743 23.4768 19.1481 22.9866 19.6094 22.7215C19.838 22.5942 20.0949 22.5267 20.3564 22.5253C20.6179 22.524 20.8755 22.5889 21.1053 22.714C21.4255 22.883 21.6576 22.9762 21.8868 23.0065C22.3889 23.0731 22.8967 22.9372 23.2984 22.6303C23.5996 22.4004 23.8223 22.0167 24.2666 21.25C24.7118 20.4833 24.9335 20.1005 24.9837 19.7253C25.0163 19.4776 24.9995 19.2259 24.9345 18.9847C24.8694 18.7435 24.7574 18.5177 24.6048 18.3202C24.4646 18.1378 24.2666 17.9848 23.9606 17.7929C23.5087 17.5108 23.2188 17.0301 23.2188 16.5C23.2188 15.9699 23.5087 15.4892 23.9596 15.208C24.2666 15.0152 24.4646 14.8622 24.6057 14.6798C24.7582 14.4823 24.87 14.2564 24.9349 14.0152C24.9998 13.774 25.0164 13.5224 24.9837 13.2747C24.9335 12.9004 24.7118 12.5166 24.2666 11.75C23.8213 10.9834 23.5996 10.6005 23.2984 10.3696C22.8957 10.0626 22.3884 9.92741 21.8868 9.99345C21.6576 10.0238 21.4255 10.117 21.1053 10.2861C20.8753 10.4113 20.6176 10.4763 20.3559 10.4749C20.0942 10.4736 19.8371 10.406 19.6085 10.2785C19.3843 10.1461 19.1975 9.95858 19.0658 9.73367C18.934 9.50877 18.8616 9.25388 18.8553 8.9931C18.8411 8.6321 18.807 8.3851 18.718 8.17325C18.6217 7.94215 18.4809 7.73234 18.3037 7.5558C18.1266 7.37927 17.9164 7.23947 17.6854 7.1444ZM16.0001 19.35C17.5821 19.35 18.8639 18.0742 18.8639 16.5C18.8639 14.9258 17.5812 13.65 16.0001 13.65C14.418 13.65 13.1362 14.9258 13.1362 16.5C13.1362 18.0742 14.4189 19.35 16.0001 19.35Z" fill="#373737"/>
</g>
</svg>
